<?xml version="1.0" encoding="UTF-8"?>
<svg xmlns="http://www.w3.org/2000/svg" id="Layer_1" data-name="Layer 1" viewBox="0 0 24 24">
  <path d="m0,12h24v2H0v-2Zm19.228,4.589c-.707.537-1.749.536-2.454,0-1.027-.783-2.519-.782-3.546,0-.707.537-1.749.537-2.455,0-1.027-.781-2.519-.781-3.545,0-.707.537-1.749.537-2.455,0-1.027-.781-2.519-.781-3.545,0-.354.269-.778.411-1.228.411v2c.891,0,1.734-.283,2.439-.819.314-.24.807-.24,1.123,0,1.408,1.072,3.468,1.072,4.877,0,.314-.24.807-.24,1.123,0,1.408,1.072,3.468,1.073,4.878,0,.314-.238.808-.239,1.122,0,1.408,1.072,3.468,1.073,4.878,0,.314-.238.808-.239,1.122,0,.704.536,1.548.819,2.438.819v-2c-.449,0-.874-.143-1.227-.41-1.027-.783-2.519-.782-3.546,0ZM1.5,21c-.828,0-1.5.672-1.5,1.5s.672,1.5,1.5,1.5,1.5-.672,1.5-1.5-.672-1.5-1.5-1.5Zm10.5,0c-.828,0-1.5.672-1.5,1.5s.672,1.5,1.5,1.5,1.5-.672,1.5-1.5-.672-1.5-1.5-1.5Zm10.5,0c-.828,0-1.5.672-1.5,1.5s.672,1.5,1.5,1.5,1.5-.672,1.5-1.5-.672-1.5-1.5-1.5ZM7.87,7.782c.237.145.496.218.758.218.225,0,.452-.054.667-.162.475-.238.835-.766.961-1.412l1.308-6.425h-1.632s-1.284,6.261-1.304,6.308c-.019-.041-1.366-6.308-1.366-6.308h-1.633l1.381,6.469c.108.561.422,1.044.86,1.313Zm-5.37.218c1.381,0,2.5-1.119,2.5-2.5V0h-1.6v5.5c0,.496-.404.9-.9.9s-.9-.404-.9-.9V0H0v5.5c0,1.381,1.119,2.5,2.5,2.5ZM22,0h-5v2h3.586l-7.086,7.086-1.514-1.514c-.258.657-.665,1.225-1.184,1.644l2.698,2.698L22,3.414v3.586h2V2c0-1.103-.897-2-2-2Z"/>
</svg>
